<svg width="91.99501953125px" height="107.039990234375px" xmlns="http://www.w3.org/2000/svg" viewBox="204.002490234375 21.4800048828125 91.99501953125 107.039990234375" style="background: rgba(0, 0, 0, 0);" preserveAspectRatio="xMidYMid"><defs><filter id="editing-hole" x="-100%" y="-100%" width="300%" height="300%"><feFlood flood-color="none" result="black"></feFlood><feMorphology operator="dilate" radius="2" in="SourceGraphic" result="erode"></feMorphology><feGaussianBlur in="erode" stdDeviation="4" result="blur"></feGaussianBlur><feOffset in="blur" dx="2" dy="2" result="offset"></feOffset><feComposite operator="atop" in="offset" in2="black" result="merge"></feComposite><feComposite operator="in" in="merge" in2="SourceGraphic" result="inner-shadow"></feComposite></filter></defs><g filter="url(#editing-hole)"><g transform="translate(223.50000023841858, 103.13000106811523)"><path d="M46.98-2.30L38.66 4.61L38.66 4.61Q36.48 6.46 32.54 7.52L32.54 7.52L32.54 7.52Q28.61 8.58 22.40 8.58L22.40 8.58L22.40 8.58Q16.26 8.58 12.29 7.26L12.29 7.26L12.29 7.26Q8.32 5.95 6.08 3.78L6.08 3.78L6.08 3.78Q3.84 1.60 3.01-1.22L3.01-1.22L3.01-1.22Q2.18-4.03 2.18-7.04L2.18-7.04L2.18-26.94L2.18-26.94Q2.18-29.95 3.01-32.45L3.01-32.45L3.01-32.45Q3.84-34.94 6.02-36.74L6.02-36.74L14.34-43.71L14.34-43.71Q16.51-45.57 20.45-46.62L20.45-46.62L20.45-46.62Q24.38-47.68 30.66-47.68L30.66-47.68L30.66-47.68Q36.80-47.68 40.77-46.66L40.77-46.66L40.77-46.66Q44.74-45.63 46.94-43.81L46.94-43.81L46.94-43.81Q49.15-41.98 49.98-39.46L49.98-39.46L49.98-39.46Q50.82-36.93 50.82-33.92L50.82-33.92L50.82-12.10L50.82-12.10Q50.82-9.15 49.98-6.62L49.98-6.62L49.98-6.62Q49.15-4.10 46.98-2.30L46.98-2.30ZM50.18-12.10L50.18-12.10L50.18-33.92L50.18-33.92Q50.18-36.86 49.34-39.26L49.34-39.26L49.34-39.26Q48.51-41.66 46.34-43.39L46.34-43.39L46.34-43.39Q44.16-45.12 40.35-46.08L40.35-46.08L40.35-46.08Q36.54-47.04 30.66-47.04L30.66-47.04L30.66-47.04Q24.77-47.04 20.96-46.08L20.96-46.08L20.96-46.08Q17.15-45.12 14.98-43.39L14.98-43.39L14.98-43.39Q12.80-41.66 11.94-39.26L11.94-39.26L11.94-39.26Q11.07-36.86 11.07-33.92L11.07-33.92L11.07-12.10L11.07-12.10Q11.07-9.15 11.94-6.75L11.94-6.75L11.94-6.75Q12.80-4.35 14.98-2.66L14.98-2.66L14.98-2.66Q17.15-0.96 20.96 0L20.96 0L20.96 0Q24.77 0.96 30.66 0.96L30.66 0.96L30.66 0.96Q36.54 0.96 40.35 0L40.35 0L40.35 0Q44.16-0.96 46.34-2.66L46.34-2.66L46.34-2.66Q48.51-4.35 49.34-6.75L49.34-6.75L49.34-6.75Q50.18-9.15 50.18-12.10ZM17.98-13.57L17.98-13.57L17.98-32.45L17.98-32.45Q17.98-34.37 18.56-35.97L18.56-35.97L18.56-35.97Q19.14-37.57 20.54-38.69L20.54-38.69L20.54-38.69Q21.95-39.81 24.42-40.45L24.42-40.45L24.42-40.45Q26.88-41.09 30.59-41.09L30.59-41.09L30.59-41.09Q38.02-41.09 40.67-38.66L40.67-38.66L40.67-38.66Q43.33-36.22 43.33-32.45L43.33-32.45L43.33-13.57L43.33-13.57Q43.33-9.73 40.67-7.33L40.67-7.33L40.67-7.33Q38.02-4.93 30.59-4.93L30.59-4.93L30.59-4.93Q26.88-4.93 24.42-5.57L24.42-5.57L24.42-5.57Q21.95-6.21 20.54-7.33L20.54-7.33L20.54-7.33Q19.14-8.45 18.56-10.05L18.56-10.05L18.56-10.05Q17.98-11.65 17.98-13.57ZM30.59-40.45L30.59-40.45L30.59-40.45Q23.74-40.45 21.18-38.27L21.18-38.27L21.18-38.27Q18.62-36.10 18.62-32.45L18.62-32.45L18.62-13.57L18.62-13.57Q18.62-9.92 21.18-7.74L21.18-7.74L21.18-7.74Q23.74-5.57 30.59-5.57L30.59-5.57L30.59-5.57Q37.44-5.57 40.06-7.74L40.06-7.74L40.06-7.74Q42.69-9.92 42.69-13.57L42.69-13.57L42.69-32.45L42.69-32.45Q42.69-36.03 40.06-38.24L40.06-38.24L40.06-38.24Q37.44-40.45 30.59-40.45ZM25.54-14.40L25.54-14.40L25.54-31.62L25.54-31.62Q25.54-32.83 26.46-33.70L26.46-33.70L26.46-33.70Q27.39-34.56 30.66-34.56L30.66-34.56L30.66-34.56Q33.92-34.56 34.85-33.70L34.85-33.70L34.85-33.70Q35.78-32.83 35.78-31.62L35.78-31.62L35.78-14.40L35.78-14.40Q35.78-13.12 34.85-12.26L34.85-12.26L34.85-12.26Q33.92-11.39 30.66-11.39L30.66-11.39L30.66-11.39Q27.39-11.39 26.46-12.26L26.46-12.26L26.46-12.26Q25.54-13.12 25.54-14.40ZM26.18-26.24L26.18-14.40L26.18-14.40Q26.18-13.95 26.30-13.50L26.30-13.50L26.30-13.50Q26.43-13.06 26.88-12.80L26.88-12.80L26.88-24.64L26.88-24.64Q26.88-25.09 26.75-25.54L26.75-25.54L26.75-25.54Q26.62-25.98 26.18-26.24L26.18-26.24Z" fill="#ffffff"></path></g></g><style>text {
  font-size: 64px;
  font-family: Arial Black;
  dominant-baseline: central;
  text-anchor: middle;
}</style></svg>