<svg width="81.029931640625px" height="107.039990234375px" xmlns="http://www.w3.org/2000/svg" viewBox="209.4850341796875 21.4800048828125 81.029931640625 107.039990234375" style="background: rgba(0, 0, 0, 0);" preserveAspectRatio="xMidYMid"><defs><filter id="editing-hole" x="-100%" y="-100%" width="300%" height="300%"><feFlood flood-color="#000000" result="black"></feFlood><feMorphology operator="dilate" radius="2" in="SourceGraphic" result="erode"></feMorphology><feGaussianBlur in="erode" stdDeviation="4" result="blur"></feGaussianBlur><feOffset in="blur" dx="2" dy="2" result="offset"></feOffset><feComposite operator="atop" in="offset" in2="black" result="merge"></feComposite><feComposite operator="in" in="merge" in2="SourceGraphic" result="inner-shadow"></feComposite></filter></defs><g filter="url(#editing-hole)"><g transform="translate(227.24499988555908, 102.17000007629395)"><path d="M32.77 7.62L32.77 7.62L4.48 7.62L4.48 7.62Q2.94 7.62 2.24 6.91L2.24 6.91L2.24 6.91Q1.54 6.21 1.54 4.67L1.54 4.67L1.54-3.07L1.54-3.07Q1.54-3.90 1.76-4.48L1.76-4.48L1.76-4.48Q1.98-5.06 2.43-5.44L2.43-5.44L10.69-12.42L10.69-12.42Q10.75-12.48 10.85-12.51L10.85-12.51L10.85-12.51Q10.94-12.54 11.01-12.61L11.01-12.61L11.01-26.11L5.76-26.11L5.76-26.11Q4.22-26.11 3.52-26.82L3.52-26.82L3.52-26.82Q2.82-27.52 2.82-29.06L2.82-29.06L2.82-36.80L2.82-36.80Q2.82-37.63 3.04-38.21L3.04-38.21L3.04-38.21Q3.26-38.78 3.71-39.17L3.71-39.17L11.97-46.14L11.97-46.14Q12.29-46.40 12.83-46.56L12.83-46.56L12.83-46.56Q13.38-46.72 14.02-46.72L14.02-46.72L32.58-46.72L32.58-46.72Q34.11-46.72 34.82-46.02L34.82-46.02L34.82-46.02Q35.52-45.31 35.52-43.78L35.52-43.78L35.52-12.99L41.02-12.99L41.02-12.99Q42.56-12.99 43.26-12.29L43.26-12.29L43.26-12.29Q43.97-11.58 43.97-10.05L43.97-10.05L43.97-2.30L43.97-2.30Q43.97-1.47 43.74-0.90L43.74-0.90L43.74-0.90Q43.52-0.32 43.07 0.06L43.07 0.06L34.75 6.98L34.75 6.98Q34.50 7.23 33.95 7.42L33.95 7.42L33.95 7.42Q33.41 7.62 32.77 7.62ZM12.74 0L41.02 0L41.02 0Q42.24 0 42.78-0.54L42.78-0.54L42.78-0.54Q43.33-1.09 43.33-2.30L43.33-2.30L43.33-10.05L43.33-10.05Q43.33-11.26 42.78-11.81L42.78-11.81L42.78-11.81Q42.24-12.35 41.02-12.35L41.02-12.35L34.88-12.35L34.88-43.78L34.88-43.78Q34.88-44.99 34.34-45.54L34.34-45.54L34.34-45.54Q33.79-46.08 32.58-46.08L32.58-46.08L14.02-46.08L14.02-46.08Q12.80-46.08 12.26-45.54L12.26-45.54L12.26-45.54Q11.71-44.99 11.71-43.78L11.71-43.78L11.71-36.03L11.71-36.03Q11.71-34.82 12.26-34.27L12.26-34.27L12.26-34.27Q12.80-33.73 14.02-33.73L14.02-33.73L19.90-33.73L19.90-12.35L12.74-12.35L12.74-12.35Q11.52-12.35 10.98-11.81L10.98-11.81L10.98-11.81Q10.43-11.26 10.43-10.05L10.43-10.05L10.43-2.30L10.43-2.30Q10.43-1.09 10.98-0.54L10.98-0.54L10.98-0.54Q11.52 0 12.74 0L12.74 0ZM37.57-5.44L16.19-5.44L16.19-6.08L27.07-6.08L27.07-39.68L17.47-39.68L17.47-40.32L27.71-40.32L27.71-6.08L37.57-6.08L37.57-5.44Z" fill="#0affec"></path></g></g><style>text {
  font-size: 64px;
  font-family: Arial Black;
  dominant-baseline: central;
  text-anchor: middle;
}</style></svg>